PathFileType	4	(X/Y/Z)	C:\Users\WrightLab\Desktop\Jo\P1.2Trial27.trc
DataRate	CameraRate	NumFrames	NumMarkers	Units	OrigDataRate	OrigDataStartFrame	OrigNumFrames
100.00	100.00	       10	19	mm	100.00	710	       946
Frame#	Time	Headset_Front			Headset_Back			Headset_Left			Headset_Right			Left_Shoulder			Right_Shoulder			Sternum			C7			Left Elbow			Right Elbow			Left Wrist			Right Wrist			Left ASIS			Right ASIS			S2			Left Knee			Right Knee			Left Ankle			Right Ankle			
		X1	Y1	Z1	X2	Y2	Z2	X3	Y3	Z3	X4	Y4	Z4	X5	Y5	Z5	X6	Y6	Z6	X7	Y7	Z7	X8	Y8	Z8	X9	Y9	Z9	X10	Y10	Z10	X11	Y11	Z11	X12	Y12	Z12	X13	Y13	Z13	X14	Y14	Z14	X15	Y15	Z15	X16	Y16	Z16	X17	Y17	Z17	X18	Y18	Z18	X19	Y19	Z19	

710	7.090	-769.73010	1348.61780	-792.48816	-804.48462	1488.93677	-523.29565	-901.12292	1423.39063	-646.30377	-677.05963	1388.65527	-679.79626	-1021.57422	1217.78809	-540.36176	-601.89972	1210.69763	-607.53320	-835.51324	1149.80920	-684.57141	-792.43402	1280.30798	-459.16483	-1077.70715	931.19312	-504.19513	-523.92957	960.11926	-560.05219	-1172.28186	741.17194	-581.38696	-455.44254	719.95746	-657.15063	-965.55444	840.16687	-637.50751	-689.40143	822.14642	-699.92969	-788.59723	879.86548	-389.13550	-1029.02649	415.82339	-651.06445	-735.50183	415.04111	-690.13782	-967.19995	185.51616	-342.14990				
711	7.100	-769.42999	1350.30359	-799.14490	-804.25763	1489.45691	-529.18280	-901.37811	1425.02307	-652.71594	-677.35583	1390.74622	-686.66040	-1021.67419	1218.02429	-546.44714	-601.45874	1212.47498	-608.38574	-835.75726	1151.77124	-691.31274	-792.77405	1281.82874	-465.95834	-1078.56445	931.49640	-510.60526	-522.35541	961.96826	-570.71289	-1173.32922	742.10669	-589.57489	-456.44412	724.48645	-676.93079				-687.56598	823.54584	-706.51385	-789.33862	881.89679	-397.64261	-1030.54041	422.09537	-668.65881	-729.45886	415.02518	-694.21417	-972.23029	184.71231	-364.53452				
712	7.110	-769.08136	1351.94775	-805.66180	-804.11926	1490.37280	-535.29291	-902.76929	1427.53711	-660.49817	-677.15936	1392.16272	-693.00861	-1021.53687	1218.45264	-552.16583	-601.19958	1215.29895	-617.03113	-836.14771	1153.11230	-698.07275	-792.62964	1282.15857	-473.11023	-1079.43909	931.54895	-516.87390	-520.45380	964.40118	-582.23621	-1175.33984	743.14075	-598.73584	-457.57901	728.37854	-695.70935	-965.38763	842.07837	-655.29236	-687.44812	827.09235	-714.30444	-789.40222	882.05090	-406.35730	-1031.40979	427.66403	-687.80011	-724.76611	412.31107	-695.72070	-977.09430	185.55403	-385.68573				
713	7.120	-768.78809	1353.36035	-811.97168	-804.93158	1491.74207	-542.10828	-901.68982	1427.30981	-666.23932				-1021.76227	1218.53186	-557.94165	-601.19727	1216.96228	-625.49756	-836.13312	1154.88416	-705.44116	-792.63892	1283.04504	-479.87079	-1078.82898	931.91083	-523.74634	-519.32874	966.69916	-591.82056	-1177.04456	743.96704	-607.66553	-458.11841	734.29919	-715.04291	-965.18323	843.03241	-664.70978	-686.97266	829.17645	-721.16351	-789.30188	881.96405	-414.96082	-1031.43591	433.04639	-706.98834	-719.46924	410.52188	-698.75275	-983.96570	184.96381	-404.92587	-769.49133	68.71442	-662.45227	
714	7.130	-768.41400	1354.81165	-818.35620	-805.48834	1492.66211	-548.31976	-901.41949	1428.64209	-673.10046	-677.09540	1394.88916	-705.31885	-1021.46893	1218.43652	-563.87817	-601.54919	1218.46167	-625.90686	-835.89917	1156.47205	-712.41351	-793.12024	1283.77454	-485.69830	-1078.34937	931.02722	-528.87024	-517.91638	968.87952	-602.14490	-1179.01282	744.37329	-616.26129	-459.44855	739.51593	-732.85602	-964.84338	844.04822	-673.98602	-686.75989	831.12634	-728.52344	-790.29169	881.91046	-423.01596	-1031.12061	438.68829	-724.43604	-714.84253	409.17902	-702.04712							
715	7.140	-768.03296	1356.31116	-825.60028	-805.97058	1493.67798	-554.92749	-901.74078	1429.66113	-680.28851	-676.89587	1396.20447	-711.99695	-1021.47839	1218.89868	-570.33557	-601.87518	1221.61499	-634.82361	-835.47186	1158.01538	-719.74634	-793.63556	1284.11584	-492.85220	-1079.07605	931.72131	-535.15430	-516.67603	972.03271	-612.50989	-1180.37927	745.88739	-624.50311	-460.54453	745.03131	-751.16943	-964.59473	844.83093	-683.27228	-686.81531	832.48553	-734.79388	-790.32056	882.81702	-430.70850	-1030.72766	444.14853	-740.09619	-711.59729	406.43744	-703.35034							
716	7.150	-767.71979	1357.23560	-831.36755	-807.29962	1493.94531	-561.45392	-902.01990	1430.19226	-686.76184	-676.74524	1397.44568	-718.96960	-1021.49878	1219.03052	-576.38507	-601.14124	1223.05225	-640.82617	-834.94562	1159.37231	-726.52429	-793.41913	1284.51123	-499.73618	-1080.33044	932.59595	-541.56744	-514.53949	974.26489	-622.67029	-1182.06128	746.22015	-632.12524	-461.87320	750.93591	-768.46454	-964.26715	845.86743	-693.22589	-686.68707	834.66388	-741.87195	-791.21948	883.02167	-439.29047	-1029.86938	449.49164	-756.70557	-706.95795	404.23248	-704.67224	-997.26178	169.02499	-485.79416				
717	7.160	-767.16840	1358.55750	-838.38306	-806.81799	1494.14551	-567.69568	-902.37567	1431.07263	-694.01416	-676.73431	1397.66736	-723.08008	-1020.97296	1218.81580	-582.38147	-600.41571	1224.41028	-647.07343	-834.31476	1160.62012	-734.19427	-794.28436	1285.62170	-507.08023	-1079.55518	931.81262	-546.99500	-513.76221	975.77246	-631.50427	-1184.19202	746.98035	-640.20667	-463.53479	757.02930	-785.95221	-963.84064	846.72217	-702.25397	-686.48071	836.66486	-749.56256	-794.59589	882.59625	-449.86462	-1028.48181	454.02301	-772.10565	-704.03705	402.16965	-706.50153	-1002.99115	163.88875	-511.52747				
718	7.170	-766.85352	1359.30457	-845.01727	-808.32458	1495.06848	-574.34125	-903.95917	1431.48010	-701.39093	-677.16516	1399.06055	-730.44928	-1021.08960	1218.67468	-589.02026	-600.80560	1227.37292	-656.69965	-833.67285	1161.54529	-740.90125	-795.11151	1286.27307	-513.89972	-1079.99805	932.17322	-552.85901	-512.11084	978.39923	-641.35590	-1187.29822	747.96002	-649.06537	-464.67096	762.86096	-803.31030	-963.43774	847.88513	-712.37714	-707.81677	669.45154	-381.29514	-793.81781	883.47864	-453.52615	-1026.74463	458.57309	-787.86444	-700.65808	400.10547	-708.99457	-1008.98938	156.39310	-535.05579				
719	7.180	-766.44604	1359.90674	-851.73560	-808.21075	1495.13159	-581.08197	-902.68988	1431.85706	-707.85614	-677.20386	1399.06250	-735.25751	-1021.16156	1218.59827	-595.75055	-600.82422	1227.89966	-660.92773	-833.12762	1162.13623	-748.31049	-795.38550	1286.12891	-521.05267	-1080.25293	932.29877	-558.30579	-511.52734	979.22375	-649.92651	-1188.76172	748.76349	-657.71216	-466.88565	768.38953	-818.24164	-962.85870	848.65771	-721.37292	-706.37061	679.61768	-408.89185	-795.81189	882.66138	-461.20670	-1024.54761	462.74445	-802.45380	-696.37250	399.14359	-713.57288	-1014.90430	150.35545	-560.90784				
